<?xml version="1.0" encoding="UTF-8" standalone="no"?>
<svg xmlns="http://www.w3.org/2000/svg" width="400" height="400" version="1.0">
    <g transform="scale(1.4,1.4) translate(-317,-650)">
    <path
       d="m 502.52802,661.46143 h 34.17968 l -71.09375,139.84375 12.89063,54.49218 q 6.44531,27.14844 14.84375,34.375 8.59375,7.22657 20.70312,7.22657 28.51563,0 30.46875,-33.20313 h 7.22657 q -0.39063,29.10156 -11.32813,45.70313 -10.9375,16.79687 -29.49219,16.79687 -16.21093,0 -25.78125,-10.35156 -9.57031,-10.35156 -16.99218,-41.01563 L 455.26239,821.03174 403.11395,925.91455 H 368.93427 L 444.5202,775.71924 433.5827,729.62549 q -6.05468,-25.19531 -12.10937,-33.98438 -6.05469,-8.98437 -18.94531,-8.98437 -22.85157,0 -28.32032,34.76562 h -7.22656 q 0,-27.34375 9.375,-44.92187 9.57031,-17.77344 28.32031,-17.77344 16.21094,0 24.21875,11.91406 8.20313,11.91407 15.625,43.16407 l 10.15625,42.1875 z"/>
  </g>
</svg>