<svg xmlns="http://www.w3.org/2000/svg" width="400" height="400" version="1.0">
    <g transform="scale(2.1,2.1) translate(-357,-656)">
      <path d="m 450.96552,656.18799 q 40.625,0 65.23437,30.85937 20.89844,26.36719 20.89844,60.54688 0,24.02344 -11.52344,48.63281 -11.52344,24.60938 -31.83594,37.10938 -20.11718,12.5 -44.92187,12.5 -40.42969,0 -64.25781,-32.22657 -20.11719,-27.14843 -20.11719,-60.9375 0,-24.60937 12.10937,-48.82812 12.30469,-24.41406 32.22657,-35.9375 19.92187,-11.71875 42.1875,-11.71875 z m -6.05469,12.69531 q -10.35156,0 -20.89844,6.25 -10.35156,6.05469 -16.79687,21.48438 -6.44532,15.42968 -6.44532,39.64843 0,39.0625 15.42969,67.38282 15.625,28.32031 41.01563,28.32031 18.94531,0 31.25,-15.625 12.30468,-15.625 12.30468,-53.71094 0,-47.65625 -20.50781,-75 -13.86719,-18.75 -35.35156,-18.75 z" style="font-size:400px;line-height:1.25;text-align:center;text-anchor:middle" id="path814"/>
    </g>
</svg>